# xmcd
#
# Track frame offsets: 
#        150
#        9222
#        27889
#        48560
#        56405
#        101059
#        121402
#        129724
#        150817
#        164051
#        227653
#
# Disc length: 3437 seconds
#
# Revision: 1
# Processed by: cddbd v1.5.2PL0 Copyright (c) Steve Scherf et al.
# Submitted via: ExactAudioCopy v0.99pb3
#
DISCID=830d6b0b
DTITLE=Julien Lourau - Forget ²
DYEAR=2006
DGENRE=Jazz
TTITLE0=Lisa et Flavio
TTITLE1=Diaspora
TTITLE2=I'd rather not ²
TTITLE3=Cochon créole (swing)
TTITLE4=Collateral dammage
TTITLE5=Bigger than life
TTITLE6=Cochon créole (swing)
TTITLE7=Hope
TTITLE8=Cochon créole (swing)
TTITLE9=Cochon créole (dub)
TTITLE10=Ve-vor
EXTD=YEAR: 2005
EXTT0=
EXTT1=
EXTT2=
EXTT3=
EXTT4=
EXTT5=
EXTT6=
EXTT7=
EXTT8=
EXTT9=
EXTT10=
PLAYORDER=
